# xmcd
# 
# Track frame offsets:
#     150
#     11782
#     24042
#     35757
#     46842
#     56290
#     68530
#     80097
#     92002
#     102980
#     113910
#     125907
# 
# Disc length: 1817
# 
# Revision: 4
# Processed by: cddbd v1.5.2PL0 Copyright (c) Steve Scherf et al.
# Submitted via: fre:ac v1.0.31
# 
DISCID=9607170c
DTITLE=Columbia Blues - Bobby Bland Two Steps from the Blues
DYEAR=1973
DGENRE=Blues
TTITLE0=Two Steps From The Blues
TTITLE1=Cry, Cry, Cry
TTITLE2=I'm Not Ashamed
TTITLE3=Don't Cry No More
TTITLE4=Lead Me On
TTITLE5=I Pity The Fool
TTITLE6=I've Got To Forget You
TTITLE7=Little Boy Blue
TTITLE8=St. James Infirmary
TTITLE9=I'll Take Care of You
TTITLE10=I Don't Want No Woman
TTITLE11=I've Been Wrong So Long
EXTD=YEAR: 1973 ID3G: 0
EXTT0=
EXTT1=
EXTT2=
EXTT3=
EXTT4=
EXTT5=
EXTT6=
EXTT7=
EXTT8=
EXTT9=
EXTT10=
EXTT11=
PLAYORDER=
